<svg width="48" height="48" viewBox="0 0 48 48" fill="none" xmlns="http://www.w3.org/2000/svg">
  <!-- 
    PANELROOM — Brand Icon
    
    Design Philosophy:
    - Simple as Apple, bold as Spotify
    - A single "P" letterform that's also a speech bubble
    - The cutout creates a "doorway" into the interview room
    
    This works at 16px favicon to billboard size.
  -->
  
  <path 
    d="M8 6a6 6 0 0 0-6 6v24a6 6 0 0 0 6 6h10v-14h-4a2 2 0 0 1-2-2V16a2 2 0 0 1 2-2h20a2 2 0 0 1 2 2v6h10a4 4 0 0 0 4-4V12a6 6 0 0 0-6-6H8Z"
    fill="#005A8B"
  />
  <circle cx="40" cy="36" r="8" fill="#00D4AA"/>
</svg>
